<mxfile host="app.diagrams.net" modified="2023-11-17T13:22:25.781Z" agent="Mozilla/5.0 (Windows NT 10.0; Win64; x64) AppleWebKit/537.36 (KHTML, like Gecko) Chrome/119.0.0.0 Safari/537.36" version="22.1.3" etag="yX3t9b6nyb0jAk2Id90w" type="github">
  <diagram name="PÃ¡gina-1" id="MXCpJsg3Tal_V9Foe2UH">
    <mxGraphModel>
      <root>
        <mxCell id="0" />
        <mxCell id="1" parent="0" />
      </root>
    </mxGraphModel>
  </diagram>
</mxfile>
